<?xml version="1.0" encoding="UTF-8"?>
<svg version="1.1" xmlns="http://www.w3.org/2000/svg" width="96" height="96">
<path d="M0 0 C5.7811477 2.69108905 10.76406114 6.48069223 15.66210938 10.52856445 C19.8557203 13.86599883 22.44686224 14.7776542 28 14.1875 C28.33 13.5275 28.66 12.8675 29 12.1875 C32.73487777 12.6854837 34.81237635 13.06241756 38 15.1875 C37.66153117 20.60300121 34.51813894 24.30892811 31 28.1875 C24.70153145 33.60711247 19.48347813 34.61347874 11.34375 34.5234375 C4.05681037 33.79133842 -0.80943352 29.3343657 -6.5 25.0625 C-13.14320847 20.16313375 -18.5512707 18.26189559 -26.75 17.8125 C-30.45553141 17.57863056 -32.53977391 17.30272865 -35.1875 14.625 C-35.785625 13.820625 -36.38375 13.01625 -37 12.1875 C-35.58973971 8.91368146 -33.93645729 6.95222172 -31.25 4.625 C-30.26773437 3.75681641 -30.26773437 3.75681641 -29.265625 2.87109375 C-20.63726886 -3.54066745 -9.91569874 -3.69487419 0 0 Z M-19 7.1875 C-19 7.8475 -19 8.5075 -19 9.1875 C-18.30777344 9.34863281 -17.61554687 9.50976562 -16.90234375 9.67578125 C-8.21381029 12.09117066 -2.10922647 16.34709222 4.9453125 21.82421875 C8.65101259 24.69116064 10.07104726 25.31505647 14.625 25.25 C15.44226562 25.24097656 16.25953125 25.23195313 17.1015625 25.22265625 C17.72804687 25.21105469 18.35453125 25.19945313 19 25.1875 C19 24.5275 19 23.8675 19 23.1875 C17.08781197 21.8326875 17.08781197 21.8326875 14.625 20.5 C10.86998889 18.33303461 7.32232961 16.04476125 3.8125 13.5 C-3.93090779 8.06518584 -9.64461888 6.73072732 -19 7.1875 Z " fill="#fff" transform="translate(38,45.8125)"/>
<path d="M0 0 C5.7811477 2.69108905 10.76406114 6.48069223 15.66210938 10.52856445 C19.8557203 13.86599883 22.44686224 14.7776542 28 14.1875 C28.33 13.5275 28.66 12.8675 29 12.1875 C32.73487777 12.6854837 34.81237635 13.06241756 38 15.1875 C37.66153117 20.60300121 34.51813894 24.30892811 31 28.1875 C24.70153145 33.60711247 19.48347813 34.61347874 11.34375 34.5234375 C4.05681037 33.79133842 -0.80943352 29.3343657 -6.5 25.0625 C-13.14320847 20.16313375 -18.5512707 18.26189559 -26.75 17.8125 C-30.45553141 17.57863056 -32.53977391 17.30272865 -35.1875 14.625 C-35.785625 13.820625 -36.38375 13.01625 -37 12.1875 C-35.58973971 8.91368146 -33.93645729 6.95222172 -31.25 4.625 C-30.26773437 3.75681641 -30.26773437 3.75681641 -29.265625 2.87109375 C-20.63726886 -3.54066745 -9.91569874 -3.69487419 0 0 Z M-19 7.1875 C-19 7.8475 -19 8.5075 -19 9.1875 C-18.30777344 9.34863281 -17.61554687 9.50976562 -16.90234375 9.67578125 C-8.21381029 12.09117066 -2.10922647 16.34709222 4.9453125 21.82421875 C8.65101259 24.69116064 10.07104726 25.31505647 14.625 25.25 C15.44226563 25.24097656 16.25953125 25.23195313 17.1015625 25.22265625 C17.72804687 25.21105469 18.35453125 25.19945313 19 25.1875 C19 24.5275 19 23.8675 19 23.1875 C17.08781197 21.8326875 17.08781197 21.8326875 14.625 20.5 C10.86998889 18.33303461 7.32232961 16.04476125 3.8125 13.5 C-3.93090779 8.06518584 -9.64461888 6.73072732 -19 7.1875 Z " fill="#fff" transform="translate(58,17.8125)"/>
</svg>
